<?xml version="1.0" encoding="UTF-8"?>
<svg version="1.1" xmlns="http://www.w3.org/2000/svg" width="128" height="128">
<path d="M0 0 C0 31.68 0 63.36 0 96 C-5.61 96 -11.22 96 -17 96 C-17.495 60.855 -17.495 60.855 -18 25 C-19.98 26.98 -21.96 28.96 -24 31 C-27.99889119 31.10315804 -30.60555083 29.18715091 -33.8125 26.9375 C-34.60269531 26.38964844 -35.39289062 25.84179688 -36.20703125 25.27734375 C-36.79871094 24.85582031 -37.39039063 24.43429688 -38 24 C-37.08578214 17.96408432 -32.01495062 14.00322662 -28 9.75 C-27.19304688 8.81414063 -26.38609375 7.87828125 -25.5546875 6.9140625 C-16.82725635 -2.24039892 -14.54041986 0 0 0 Z " fill="#000000" transform="translate(83,16)"/>
</svg>
