<?xml version="1.0" encoding="UTF-8"?>
<svg version="1.1" xmlns="http://www.w3.org/2000/svg" width="128" height="128">
<path d="M0 0 C8.666003 6.04875377 13.82088783 14.79736697 16.14453125 25.015625 C18.79548618 40.58699988 11.16843861 54.63298945 2.515625 67.02734375 C-0.21401289 70.85079003 -3.00655171 74.62589699 -5.81445312 78.39208984 C-8.27056083 81.70843211 -10.6593081 85.07165024 -13.046875 88.4375 C-15.46700452 91.84229482 -17.90866296 95.22554764 -20.421875 98.5625 C-19.42333496 98.56660889 -18.42479492 98.57071777 -17.39599609 98.57495117 C-13.67184664 98.59681323 -9.94874318 98.65117401 -6.22509766 98.71508789 C-4.61712714 98.73820671 -3.00900652 98.75264924 -1.40087891 98.75805664 C0.91858799 98.76739196 3.23571414 98.80847459 5.5546875 98.85546875 C6.26742828 98.8515361 6.98016907 98.84760345 7.71450806 98.84355164 C13.3948429 99.00757806 15.72520945 100.67983362 19.578125 104.5625 C21.32034211 108.04693422 21.16487654 111.76137045 20.578125 115.5625 C18.87560781 118.63719523 16.76585992 120.96863254 13.578125 122.5625 C11.66456388 122.66903208 9.74729536 122.71133574 7.83081055 122.72363281 C6.6258342 122.73324036 5.42085785 122.7428479 4.17936707 122.75274658 C2.21692802 122.7591214 2.21692802 122.7591214 0.21484375 122.765625 C-1.13795473 122.77137745 -2.4907532 122.77713518 -3.84355164 122.78289795 C-6.68240743 122.79340851 -9.52123491 122.79925048 -12.36010742 122.80273438 C-15.99177137 122.80821261 -19.62305915 122.83222551 -23.25460529 122.86070633 C-26.05050231 122.87936454 -28.84630941 122.88454003 -31.64226341 122.88607025 C-33.63031226 122.89055764 -35.61831291 122.90919097 -37.60627747 122.92803955 C-38.8207103 122.92503845 -40.03514313 122.92203735 -41.28637695 122.91894531 C-42.88616142 122.92441376 -42.88616142 122.92441376 -44.51826477 122.92999268 C-48.7075217 122.39978334 -51.34340326 120.71936286 -54.1953125 117.66015625 C-56.50312721 113.71335211 -56.24917529 109.96850081 -55.421875 105.5625 C-51.90303288 97.51761095 -45.38009005 90.59621706 -39.97363281 83.75561523 C-34.41398532 76.67829852 -29.35363547 69.31441324 -24.3359375 61.84765625 C-21.96738995 58.33014056 -19.48658105 54.93888268 -16.921875 51.5625 C-12.48340939 45.50662743 -8.90799005 39.26912728 -7.921875 31.75 C-8.59481268 27.46002231 -9.49180067 24.17338891 -12.93359375 21.30078125 C-17.08493866 18.64205474 -20.44966501 17.85218429 -25.421875 18.5625 C-29.29520181 20.07244096 -31.53328006 20.97507785 -33.57421875 24.62109375 C-34.2254644 26.17205227 -34.85170482 27.73373651 -35.453125 29.3046875 C-37.10084354 33.14493473 -39.62015812 36.66164156 -43.421875 38.5625 C-47.21603019 39.09368173 -50.88518678 39.41339348 -54.3125 37.515625 C-57.04505601 35.26060305 -59.1872091 33.34749967 -59.66015625 29.75 C-59.9688892 20.65050249 -57.04940924 14.08205304 -51.109375 7.25 C-37.31427922 -7.10770164 -17.49682352 -10.38521138 0 0 Z " fill="#000000" transform="translate(83.421875,5.4375)"/>
</svg>
