<?xml version="1.0" encoding="UTF-8"?>
<svg version="1.1" xmlns="http://www.w3.org/2000/svg" width="128" height="128">
<path d="M0 0 C8.6180723 5.7746947 13.93423635 14.47660022 16.52734375 24.4453125 C18.32000155 34.13455383 17.06204654 44.82481335 11.55078125 53.203125 C11.08027344 53.79609375 10.60976562 54.3890625 10.125 55 C9.073125 56.485 9.073125 56.485 8 58 C8.55825641 61.26978753 9.97459024 62.96557388 11.9375 65.625 C17.0852737 74.04862969 18.29443491 83.92375582 16.53125 93.5625 C14.06713099 102.94962005 9.22427063 111.6028224 1 117 C-9.81446827 123.06665293 -20.87626551 124.99332526 -33.12890625 122.31640625 C-42.53744943 118.76795726 -50.848989 112.10248569 -55.48046875 103.1328125 C-60.05436213 92.85756742 -60.05436213 92.85756742 -59 87 C-57.38679279 83.94642921 -55.96939098 81.76166434 -53.25 79.625 C-48.70981228 78.36383674 -44.65194056 78.43683845 -40.25 79.9375 C-36.22044811 83.6312559 -34.69626808 88.81836002 -33.0625 93.9375 C-32.1325205 96.24119735 -32.1325205 96.24119735 -29.5 97.25 C-28.2625 97.62125 -28.2625 97.62125 -27 98 C-26.01 98.495 -26.01 98.495 -25 99 C-19.77050726 99.40226867 -16.39315425 98.9287695 -12 96 C-8.28809379 91.89736682 -7.35064795 88.55914192 -7.61328125 83.1796875 C-8.39990537 78.7459879 -10.73528932 76.04152645 -14.125 73.25 C-16.86830555 72.05725846 -19.06943406 71.60328228 -22 71.125 C-26.71570243 70.28868318 -29.03929921 68.91576557 -32 65 C-33.49756381 60.50730856 -33.68518388 56.67489392 -31.875 52.25 C-28.48307476 48.17968971 -24.4764561 47.03507722 -19.4375 46.0625 C-15.38623457 45.23724223 -12.9398446 44.0289308 -10 41 C-7.46902314 36.74295058 -7.32769751 32.8405779 -8 28 C-10.36707866 23.08375972 -12.86040493 20.81397473 -18 19 C-23.12215503 18.46082579 -25.78605893 19.11044041 -30 22 C-30.66 22 -31.32 22 -32 22 C-32.2475 22.639375 -32.495 23.27875 -32.75 23.9375 C-33.1625 24.948125 -33.575 25.95875 -34 27 C-34.27972656 27.73605469 -34.55945313 28.47210938 -34.84765625 29.23046875 C-36.28242813 32.79125888 -37.39283604 35.44343304 -40.25 38.0625 C-45.03851303 39.69494762 -49.12891896 39.790012 -53.8125 37.8125 C-57.33855695 34.89090996 -58.760074 32.46954675 -59.5 27.9375 C-58.16172982 17.39862232 -52.97588746 8.8977337 -45 2 C-31.53252769 -6.94794168 -14.16912132 -8.56232178 0 0 Z " fill="#000000" transform="translate(85,5)"/>
</svg>
