<?xml version="1.0" encoding="UTF-8"?>
<svg version="1.1" xmlns="http://www.w3.org/2000/svg" width="128" height="128">
<path d="M0 0 C1.56717773 -0.01063477 1.56717773 -0.01063477 3.16601562 -0.02148438 C10.80529418 0.04246322 10.80529418 0.04246322 12.93724537 1.7029314 C14.63481627 3.84402812 14.68345332 4.88756766 14.67326355 7.59465027 C14.67738754 8.44018967 14.68151154 9.28572906 14.6857605 10.15689087 C14.67497467 11.08117889 14.66418884 12.00546692 14.65307617 12.95776367 C14.65373329 14.42145638 14.65373329 14.42145638 14.65440369 15.91471863 C14.65231101 19.14517109 14.62895707 22.37510677 14.60546875 25.60546875 C14.59987451 27.84320289 14.5956036 30.08094069 14.59260559 32.31867981 C14.58114335 38.21245442 14.55166413 44.10600774 14.51849365 49.99969482 C14.48782258 56.01213589 14.47410658 62.02461265 14.45898438 68.03710938 C14.4267959 79.83733689 14.37558276 91.63740005 14.3125 103.4375 C15.55386719 103.39109375 16.79523438 103.3446875 18.07421875 103.296875 C19.71612171 103.25934579 21.35805077 103.22294686 23 103.1875 C23.81662109 103.15398437 24.63324219 103.12046875 25.47460938 103.0859375 C29.60589969 103.01903401 31.74747916 103.08873069 35.34375 105.30859375 C38.44739515 108.66471797 38.2534226 111.37410688 38.5 115.8125 C38.252235 120.6026234 37.79429777 124.95570223 34.3125 128.4375 C31.28285217 128.70492554 31.28285217 128.70492554 27.34008789 128.72802734 C26.62285049 128.73474457 25.9056131 128.74146179 25.16664124 128.74838257 C22.78940962 128.76742175 20.41245941 128.77128963 18.03515625 128.7734375 C16.38610211 128.77986111 14.73704914 128.78658914 13.08799744 128.79360962 C9.62870643 128.80559704 6.1695154 128.80928892 2.71020508 128.80810547 C-1.7266352 128.80790214 -6.1628359 128.83521113 -10.5995245 128.86964989 C-14.00613866 128.89186654 -17.4125976 128.89594464 -20.81927681 128.89488602 C-22.45518767 128.89724963 -24.09110232 128.90611574 -25.72694206 128.92155075 C-28.01365063 128.94110702 -30.29896321 128.93541513 -32.58569336 128.92333984 C-34.53855507 128.9276149 -34.53855507 128.9276149 -36.53086853 128.93197632 C-39.6875 128.4375 -39.6875 128.4375 -41.60206604 126.63931274 C-43.23052977 123.33595914 -43.20064076 120.10385242 -43.1875 116.5 C-43.21585938 115.79681641 -43.24421875 115.09363281 -43.2734375 114.36914062 C-43.28711145 110.72161382 -42.76158753 108.55666395 -40.83203125 105.453125 C-36.21693725 102.49487841 -32.22366636 102.89330511 -26.875 103.125 C-21.8321875 103.2796875 -21.8321875 103.2796875 -16.6875 103.4375 C-16.6875 94.5275 -16.6875 85.6175 -16.6875 76.4375 C-14.2125 75.9425 -14.2125 75.9425 -11.6875 75.4375 C-10.01076351 77.11423649 -10.55962183 79.16605076 -10.54855347 81.40405273 C-10.5505777 82.09571533 -10.55260193 82.78737793 -10.5546875 83.5 C-10.55373077 84.20648682 -10.55277405 84.91297363 -10.55178833 85.64086914 C-10.55110667 87.13720793 -10.55295995 88.63354967 -10.55712891 90.12988281 C-10.56247743 92.42780157 -10.55718349 94.72552486 -10.55078125 97.0234375 C-10.55144203 98.47395877 -10.5527232 99.92447991 -10.5546875 101.375 C-10.55266327 102.0666626 -10.55063904 102.7583252 -10.54855347 103.47094727 C-10.57254776 108.32254776 -10.57254776 108.32254776 -11.6875 109.4375 C-13.46619726 109.59514405 -15.25068476 109.68850677 -17.03515625 109.75390625 C-18.11474609 109.79580078 -19.19433594 109.83769531 -20.30664062 109.88085938 C-21.44294922 109.92017578 -22.57925781 109.95949219 -23.75 110 C-25.46026367 110.06477539 -25.46026367 110.06477539 -27.20507812 110.13085938 C-30.03239508 110.23732738 -32.85993092 110.33795262 -35.6875 110.4375 C-35.6875 114.3975 -35.6875 118.3575 -35.6875 122.4375 C-13.9075 122.4375 7.8725 122.4375 30.3125 122.4375 C31.17328027 115.87926755 31.17328027 115.87926755 31.3125 109.4375 C30.6512915 109.44273682 29.99008301 109.44797363 29.30883789 109.45336914 C26.33090149 109.47407656 23.35298018 109.48714012 20.375 109.5 C18.81362305 109.51256836 18.81362305 109.51256836 17.22070312 109.52539062 C15.73666992 109.53022461 15.73666992 109.53022461 14.22265625 109.53515625 C12.84799194 109.54301147 12.84799194 109.54301147 11.44555664 109.55102539 C9.3125 109.4375 9.3125 109.4375 8.3125 108.4375 C8.21713758 105.27137337 8.18699364 102.12709372 8.19897461 98.96069336 C8.19882858 97.96568314 8.19868256 96.97067291 8.1985321 95.94551086 C8.19923169 92.63943338 8.20702621 89.33341146 8.21484375 86.02734375 C8.21670777 83.74190807 8.21813175 81.45647199 8.21913147 79.17103577 C8.22295793 73.14251613 8.2327893 67.11402041 8.24383545 61.08551025 C8.25404683 54.93917159 8.2586285 48.79282907 8.26367188 42.64648438 C8.27441146 30.57681238 8.2914894 18.50715818 8.3125 6.4375 C6.40240449 6.413744 4.49222294 6.39684434 2.58203125 6.3828125 C0.98645386 6.36758545 0.98645386 6.36758545 -0.64135742 6.35205078 C-9.99042309 6.61430717 -16.73088852 11.84383902 -24.13671875 17.01953125 C-26.85416049 18.91176623 -29.61443401 20.48612828 -32.5625 22 C-35.96968885 24.65760731 -36.20610813 25.09380142 -36.75 29.125 C-36.86008109 31.74492999 -36.86578444 33.08093111 -35.6875 35.4375 C-35.10782471 35.09904053 -34.52814941 34.76058105 -33.9309082 34.41186523 C-31.29569824 32.88447067 -28.6482571 31.37964988 -26 29.875 C-25.08798828 29.34197266 -24.17597656 28.80894531 -23.23632812 28.25976562 C-22.35009766 27.76025391 -21.46386719 27.26074219 -20.55078125 26.74609375 C-19.73907471 26.28001709 -18.92736816 25.81394043 -18.09106445 25.33374023 C-15.6875 24.4375 -15.6875 24.4375 -10.6875 25.4375 C-10.6875 35.9975 -10.6875 46.5575 -10.6875 57.4375 C-13.1625 57.9325 -13.1625 57.9325 -15.6875 58.4375 C-17.40193219 56.72306781 -16.91802967 54.43304759 -17.00390625 52.08984375 C-17.04580078 51.01025391 -17.08769531 49.93066406 -17.13085938 48.81835938 C-17.17017578 47.68205078 -17.20949219 46.54574219 -17.25 45.375 C-17.29318359 44.23482422 -17.33636719 43.09464844 -17.38085938 41.91992188 C-17.48732839 39.09257805 -17.58934207 36.26514262 -17.6875 33.4375 C-18.6053125 34.00339844 -19.523125 34.56929687 -20.46875 35.15234375 C-21.70789888 35.89395558 -22.94750715 36.63480018 -24.1875 37.375 C-24.78820312 37.74818359 -25.38890625 38.12136719 -26.0078125 38.50585938 C-30.6123295 41.22448377 -34.3308369 42.17969268 -39.6875 42.4375 C-42.15460756 41.00498593 -42.52983591 39.93915848 -43.375 37.25 C-44.0881046 30.83205857 -44.63993239 24.927068 -40.6875 19.4375 C-37.1406429 16.51019766 -33.2939102 14.14582974 -29.375 11.75 C-28.34181641 11.09966797 -27.30863281 10.44933594 -26.24414062 9.77929688 C-24.25261525 8.52613049 -22.25309045 7.28556519 -20.24487305 6.05932617 C-17.53635241 4.41056534 -17.53635241 4.41056534 -14.6875 2.0078125 C-9.94079777 -0.47678945 -5.26948225 -0.10190515 0 0 Z " fill="#000000" transform="translate(66.6875,-0.4375)"/>
<path d="M0 0 C1.65 0.33 3.3 0.66 5 1 C5 2.32 5 3.64 5 5 C3.125 5.625 3.125 5.625 1 6 C0.34 5.34 -0.32 4.68 -1 4 C-0.625 1.875 -0.625 1.875 0 0 Z " fill="#000000" transform="translate(51,64)"/>
</svg>
