<?xml version="1.0" encoding="UTF-8"?>
<svg version="1.1" xmlns="http://www.w3.org/2000/svg" width="128" height="128">
<path d="M0 0 C5.38589113 4.51593775 7.8801803 10.32804089 10.0625 16.875 C10.88962733 28.69885292 10.43469996 39.05028147 2.4375 48.5 C0.65823595 50.40357944 -0.60852461 51.7105123 -2.9375 52.875 C-2.06738281 53.40287109 -2.06738281 53.40287109 -1.1796875 53.94140625 C7.42648643 59.38062178 13.07961231 65.11529951 15.6484375 75.16796875 C17.23371667 85.53210523 15.18082442 95.86079495 9.2890625 104.46484375 C1.70234203 113.8424815 -9.07770489 119.14952059 -20.9375 120.875 C-36.23408242 122.05064635 -53.40130097 122.49660145 -66.515625 113.27734375 C-70.09351939 109.74859626 -70.02865053 105.03827164 -70.1875 100.3125 C-70.077012 96.50391359 -69.70080647 93.31764597 -67.9375 89.875 C-65.859375 88.5390625 -65.859375 88.5390625 -62.9375 87.875 C-60.07937377 88.67875732 -57.58370419 89.53797659 -54.875 90.6875 C-45.88584546 94.33396652 -37.15394182 96.93045711 -27.4140625 94.15625 C-24.29956692 92.72057174 -22.2311261 91.18642163 -19.875 88.6875 C-18.49458619 84.54625857 -18.83964256 81.06820552 -19.9375 76.875 C-22.29014847 72.54612681 -24.99670749 71.14830499 -29.56811523 69.50390625 C-33.88619831 68.35775664 -38.24233559 68.37814589 -42.6875 68.3125 C-44.53663523 68.27797258 -46.38564082 68.23531587 -48.234375 68.18359375 C-49.44625488 68.16510376 -49.44625488 68.16510376 -50.68261719 68.14624023 C-53.21762127 67.84130417 -54.80893913 67.28268127 -56.9375 65.875 C-59.3077755 59.83079747 -60.01021436 54.08822354 -57.5625 48 C-55.9375 44.875 -55.9375 44.875 -53.9375 43.875 C-52.57210442 43.7592308 -51.20194117 43.696534 -49.83203125 43.6640625 C-48.60323242 43.62152344 -48.60323242 43.62152344 -47.34960938 43.578125 C-45.63626945 43.52663469 -43.92270099 43.48219495 -42.20898438 43.4453125 C-35.3586837 43.18862676 -30.23313533 42.2799513 -25.3125 37.125 C-24.52875 36.3825 -23.745 35.64 -22.9375 34.875 C-20.125 35.0625 -20.125 35.0625 -17.9375 35.875 C-18.01740422 38.59174362 -18.49576644 40.36135633 -20.28125 42.4375 C-27.26398615 48.78544195 -34.17164241 50.35677398 -43.4375 50.0625 C-44.25992188 50.04896484 -45.08234375 50.03542969 -45.9296875 50.02148438 C-47.93258221 49.98655016 -49.93513356 49.93276057 -51.9375 49.875 C-51.9375 53.835 -51.9375 57.795 -51.9375 61.875 C-49.82021484 61.82279297 -49.82021484 61.82279297 -47.66015625 61.76953125 C-45.7734495 61.74137145 -43.88672975 61.71407366 -42 61.6875 C-41.07380859 61.66236328 -40.14761719 61.63722656 -39.19335938 61.61132812 C-30.45923296 61.51938995 -22.90615246 63.01104003 -16.37890625 69.14453125 C-12.64906716 73.62235975 -11.33650664 79.09978959 -11.5859375 84.859375 C-12.44603755 89.79061529 -14.73100814 93.63499447 -18.1875 97.1875 C-27.52021562 102.91439367 -37.18901913 103.31242642 -47.84375 101.04296875 C-53.0003785 99.59672945 -57.98709464 97.91773232 -62.9375 95.875 C-62.958125 97.1125 -62.97875 98.35 -63 99.625 C-63.01160156 100.32109375 -63.02320313 101.0171875 -63.03515625 101.734375 C-62.93138363 104.00907081 -62.78898457 105.75515821 -61.9375 107.875 C-50.29119375 115.67318318 -34.13266745 115.73734668 -20.84375 113.66015625 C-10.53615879 111.58833042 -1.48621393 107.42514806 4.625 98.625 C8.55226367 91.66303259 9.94378366 84.28020645 8.65234375 76.359375 C6.90569089 70.20948349 3.59576296 65.19323793 -1.7890625 61.66015625 C-6.59766701 59.12174949 -11.74974074 57.46014866 -16.9375 55.875 C-17 53.625 -17 53.625 -15.9375 50.875 C-13.78814 49.66485613 -11.57593993 48.8048234 -9.2890625 47.8828125 C-4.00336466 45.61751343 -0.95017339 42.51640124 1.4375 37.375 C4.0589601 30.02613696 4.34882577 21.80181025 1.8125 14.375 C-1.90288739 6.94422522 -6.16017072 3.64831122 -13.9375 0.875 C-29.49567823 -2.84772436 -44.35734437 -0.73657603 -58.22265625 7.1796875 C-60.60832597 9.53818558 -60.53216793 11.26169348 -60.6875 14.5625 C-60.74421875 15.55636719 -60.8009375 16.55023437 -60.859375 17.57421875 C-60.88515625 18.33347656 -60.9109375 19.09273437 -60.9375 19.875 C-60.14085937 19.46507813 -59.34421875 19.05515625 -58.5234375 18.6328125 C-57.46382812 18.09398438 -56.40421875 17.55515625 -55.3125 17 C-53.74628906 16.19949219 -53.74628906 16.19949219 -52.1484375 15.3828125 C-46.38246695 12.67519129 -41.77381768 11.58187079 -35.375 11.5625 C-34.09496094 11.54574219 -32.81492188 11.52898438 -31.49609375 11.51171875 C-27.79495446 11.88955185 -25.91248192 12.71085768 -22.9375 14.875 C-23.4325 17.35 -23.4325 17.35 -23.9375 19.875 C-24.68 19.71 -25.4225 19.545 -26.1875 19.375 C-27.425 19.21 -28.6625 19.045 -29.9375 18.875 C-31.16146484 18.70291016 -31.16146484 18.70291016 -32.41015625 18.52734375 C-40.4715003 17.91747591 -46.04813631 20.33763092 -52.97387695 24.11694336 C-56.37367446 25.92354701 -58.39902787 26.87562179 -62.3203125 26.87109375 C-64.9375 25.875 -64.9375 25.875 -66.29296875 24.24609375 C-67.15163582 21.08723976 -67.23952049 18.21060022 -67.25 14.9375 C-67.26675781 13.73222656 -67.28351563 12.52695312 -67.30078125 11.28515625 C-66.83667441 6.9285404 -65.59272022 4.31551005 -62.28125 1.43359375 C-44.3369341 -9.47746274 -17.87624584 -12.29536909 0 0 Z " fill="#000000" transform="translate(90.9375,7.125)"/>
<path d="M0 0 C1.65 0 3.3 0 5 0 C5.5625 1.9375 5.5625 1.9375 6 4 C5 5 5 5 2.4375 5.0625 C1.2309375 5.0315625 1.2309375 5.0315625 0 5 C0 3.35 0 1.7 0 0 Z " fill="#000000" transform="translate(69,31)"/>
</svg>
