<?xml version="1.0" encoding="UTF-8"?>
<svg version="1.1" xmlns="http://www.w3.org/2000/svg" width="128" height="128">
<path d="M0 0 C1.00554932 0.00757324 2.01109863 0.01514648 3.04711914 0.02294922 C15.65113412 0.30256221 24.97310199 3.66506316 33.8125 12.75 C40.97214901 23.74517526 41.81192415 34.71338 39.4375 47.4375 C34.1701981 69.7446449 14.23693651 86.84158399 -1.4375 102.4375 C-0.15061279 102.4468457 1.13627441 102.45619141 2.4621582 102.46582031 C7.23155481 102.50565815 12.00030212 102.57139949 16.76928711 102.64501953 C18.8343065 102.67326522 20.89943474 102.69446178 22.96459961 102.70849609 C25.93139515 102.72987584 28.8968771 102.77650009 31.86328125 102.828125 C32.7883699 102.82935364 33.71345856 102.83058228 34.6665802 102.83184814 C41.06145947 102.97836059 41.06145947 102.97836059 43.63232422 105.33422852 C46.55446885 111.94165004 46.02773706 119.74820178 43.5625 126.4375 C40.72133881 129.27866119 37.95212651 128.74040908 34.14697266 128.74389648 C33.00037422 128.75638176 33.00037422 128.75638176 31.83061218 128.76911926 C29.2958776 128.79327546 26.76140009 128.80199828 24.2265625 128.80859375 C22.46780315 128.8175561 20.7090446 128.82667787 18.95028687 128.83595276 C15.25980779 128.85246078 11.56941962 128.86014611 7.87890625 128.86303711 C3.14836057 128.86842162 -1.58133143 128.90609612 -6.31163597 128.95178127 C-9.94561893 128.98151572 -13.57939548 128.98875988 -17.21348953 128.98976326 C-18.95744358 128.9939731 -20.70139782 129.00643799 -22.44523239 129.02728081 C-24.88518851 129.05412069 -27.32315553 129.0493933 -29.76318359 129.03686523 C-30.84496132 129.05911667 -30.84496132 129.05911667 -31.94859314 129.08181763 C-35.7010905 129.02691491 -37.15161838 128.71784913 -39.87466431 126.04750061 C-43.45828921 120.06269797 -42.7489396 113.23918999 -41.30078125 106.640625 C-38.80960103 100.2830429 -33.95653234 95.58622329 -29.3125 90.75 C-23.75348893 84.94629816 -23.75348893 84.94629816 -18.40625 78.94921875 C-17.5503125 77.95535156 -16.694375 76.96148437 -15.8125 75.9375 C-15.07773437 75.0609375 -14.34296875 74.184375 -13.5859375 73.28125 C-11.4375 71.4375 -11.4375 71.4375 -8.6640625 71.15625 C-7.92929687 71.2490625 -7.19453125 71.341875 -6.4375 71.4375 C-5.74902344 73.20703125 -5.74902344 73.20703125 -5.4375 75.4375 C-6.61816406 77.26171875 -6.61816406 77.26171875 -8.453125 79.125 C-9.12255127 79.81787109 -9.79197754 80.51074219 -10.48168945 81.22460938 C-11.57356567 82.31999023 -11.57356567 82.31999023 -12.6875 83.4375 C-14.16554731 84.96857362 -15.64341103 86.4998245 -17.12109375 88.03125 C-19.15370845 90.11076088 -21.19009865 92.18639403 -23.23095703 94.2578125 C-31.6838928 102.53646583 -31.6838928 102.53646583 -35.4375 113.4375 C-35.35777004 116.2374286 -34.99023721 118.67381394 -34.4375 121.4375 C-31.00711706 122.58096098 -28.3811825 122.557616 -24.76293945 122.55102539 C-24.089505 122.55117142 -23.41607056 122.55131744 -22.722229 122.5514679 C-20.49838021 122.55077175 -18.27461539 122.54299332 -16.05078125 122.53515625 C-14.50807236 122.53329101 -12.96536289 122.53186761 -11.4226532 122.53086853 C-7.36366132 122.52705169 -3.30470527 122.51722851 0.75427246 122.50616455 C4.89672359 122.49593252 9.0391805 122.49136707 13.18164062 122.48632812 C21.30861201 122.4756055 29.43554742 122.45801543 37.5625 122.4375 C37.8925 118.1475 38.2225 113.8575 38.5625 109.4375 C36.35167725 109.44535522 36.35167725 109.44535522 34.09619141 109.45336914 C28.64323531 109.47142902 23.19028187 109.48293565 17.73730469 109.49243164 C15.37434444 109.49746959 13.01138732 109.50430008 10.6484375 109.51293945 C7.25780465 109.52502854 3.86721291 109.53073359 0.4765625 109.53515625 C-0.58493011 109.54031754 -1.64642273 109.54547882 -2.74008179 109.55079651 C-3.72094757 109.55087204 -4.70181335 109.55094757 -5.71240234 109.55102539 C-6.57844086 109.553246 -7.44447937 109.55546661 -8.33676147 109.55775452 C-10.4375 109.4375 -10.4375 109.4375 -12.4375 108.4375 C-12.75512695 106.27905273 -12.75512695 106.27905273 -12.4375 103.4375 C-10.79729459 101.3950335 -9.25443169 99.74045465 -7.35546875 97.97265625 C-6.56700813 97.20745163 -6.56700813 97.20745163 -5.76261902 96.42678833 C-4.63991875 95.33791323 -3.51214641 94.25424772 -2.37982178 93.17538452 C0.54225035 90.38558873 3.41848928 87.54963261 6.29296875 84.7109375 C6.85173706 84.15985825 7.41050537 83.60877899 7.98620605 83.04100037 C21.28950911 69.83829527 33.06306848 54.47395934 33.8125 35.125 C33.68370994 27.56502355 31.73759247 20.49021758 26.3984375 14.96875 C17.75716117 7.76155783 6.88404111 6.05746238 -4.125 6.62890625 C-13.74150493 7.79933613 -23.01851539 10.56335102 -31.4375 15.4375 C-32.85384833 18.27019666 -32.7838005 20.91216438 -33 24.0625 C-33.08378906 25.25101563 -33.16757812 26.43953125 -33.25390625 27.6640625 C-33.31449219 28.57929688 -33.37507813 29.49453125 -33.4375 30.4375 C-32.47328125 29.94378906 -31.5090625 29.45007813 -30.515625 28.94140625 C-29.23969148 28.29405763 -27.96364379 27.64693401 -26.6875 27 C-26.05328125 26.67451172 -25.4190625 26.34902344 -24.765625 26.01367188 C-16.59481545 21.8857108 -7.01859956 20.65824507 1.9609375 23.0859375 C5.42062756 24.85355207 8.16971765 27.58224671 9.90234375 31.0625 C12.50676413 40.43224906 11.03165533 49.95807582 6.5625 58.4375 C4.9125 58.1075 3.2625 57.7775 1.5625 57.4375 C2.02072468 53.96808454 2.45381683 50.76354951 3.5625 47.4375 C3.65705661 45.46015434 3.69239394 43.47959917 3.6875 41.5 C3.69007812 40.45972656 3.69265625 39.41945312 3.6953125 38.34765625 C3.60948399 34.77276974 3.60948399 34.77276974 2.5625 31.4375 C-3.33114115 28.16209589 -10.8314353 28.44659837 -17.1953125 30.1953125 C-21.10503023 31.71376556 -24.64046327 33.52242989 -28.1875 35.75 C-31.4375 37.4375 -31.4375 37.4375 -34.75 37.4375 C-37.4375 36.4375 -37.4375 36.4375 -38.5859375 34.90234375 C-39.83010671 31.30110167 -39.76607364 27.76444684 -39.75 24 C-39.76611328 23.24912109 -39.78222656 22.49824219 -39.79882812 21.72460938 C-39.80283768 17.16574756 -39.52891524 14.02815 -36.4375 10.4375 C-33.46875 8.5234375 -33.46875 8.5234375 -29.9375 6.8125 C-28.7928125 6.24273437 -27.648125 5.67296875 -26.46875 5.0859375 C-17.80733934 1.32440424 -9.40394546 -0.09973042 0 0 Z " fill="#000000" transform="translate(62.4375,-0.4375)"/>
<path d="M0 0 C1.67542976 0.28604898 3.34385343 0.61781233 5 1 C4.67 2.32 4.34 3.64 4 5 C2.68 5.33 1.36 5.66 0 6 C-0.38218767 4.34385343 -0.71395102 2.67542976 -1 1 C-0.67 0.67 -0.34 0.34 0 0 Z " fill="#000000" transform="translate(59,62)"/>
</svg>
